<?xml version="1.0" encoding="us-ascii" standalone="no"?><svg xmlns="http://www.w3.org/2000/svg" xmlns:xlink="http://www.w3.org/1999/xlink" contentStyleType="text/css" height="448px" preserveAspectRatio="none" style="width:827px;height:448px;background:#F9F9F9;" version="1.1" viewBox="0 0 827 448" width="827px" zoomAndPan="magnify"><defs/><g><rect fill="#F9F9F9" height="448" style="stroke:none;stroke-width:1.0;" width="827" x="0" y="0"/><!--cluster websockets--><g id="cluster_websockets"><path d="M9.5,6 L103.5,6 A5.25,5.25 0 0 1 107,9.5 L114,28.2969 L816.5,28.2969 A3.5,3.5 0 0 1 820,31.7969 L820,437.5 A3.5,3.5 0 0 1 816.5,441 L9.5,441 A3.5,3.5 0 0 1 6,437.5 L6,9.5 A3.5,3.5 0 0 1 9.5,6 " fill="none" style="stroke:#393939;stroke-width:1.0;"/><line style="stroke:#393939;stroke-width:1.0;" x1="6" x2="114" y1="28.2969" y2="28.2969"/><text fill="#000000" font-family="sans-serif" font-size="14" font-weight="bold" lengthAdjust="spacing" textLength="95" x="10" y="20.9951">websockets</text></g><!--class DefaultWebSocketServer--><g id="elem_DefaultWebSocketServer"><rect codeLine="3" fill="#F1F1F1" height="210.9688" id="DefaultWebSocketServer" rx="3.5" ry="3.5" style="stroke:#181818;stroke-width:0.5;" width="781" x="22.5" y="214"/><ellipse cx="316.75" cy="230" fill="#7FFFD4" rx="11" ry="11" style="stroke:#181818;stroke-width:1.0;"/><path d="M320.5313,225.9688 C320.5313,225.5313 320.5156,225.3906 320.4219,225.2344 C320.2813,225 320,224.8438 319.7031,224.8438 C319.3594,224.8438 319.2188,224.9844 319.0469,225.4063 C318.4531,225.0313 317.7031,224.8438 316.8281,224.8438 C314.7188,224.8438 313.1406,226.1406 313.1406,227.8594 C313.1406,228.8281 313.6719,229.7344 314.5313,230.2188 C315.0781,230.5313 315.625,230.7031 316.7344,230.8906 C317.8906,231.0938 318.1563,231.1563 318.5156,231.3438 C318.8906,231.5469 319.125,231.8906 319.125,232.25 C319.125,232.9844 318.1406,233.5313 316.8906,233.5313 C315.7656,233.5313 314.6875,233.0469 314.5156,232.4375 C314.3906,231.9688 314.3906,231.9688 314.2656,231.8594 C314.1094,231.7031 313.8906,231.6094 313.6563,231.6094 C313.375,231.6094 313.125,231.7344 312.9531,231.9531 C312.8438,232.125 312.7969,232.3125 312.7969,232.7344 L312.7969,233.8594 C312.7969,234.625 313.0781,234.9844 313.6719,234.9844 C313.9375,234.9844 314.0625,234.9219 314.3438,234.5781 C315.1875,235.0156 316.0781,235.2344 317,235.2344 C319.3281,235.2344 320.8906,234.0469 320.8906,232.2813 C320.8906,231.3906 320.5781,230.7031 319.8906,230.1563 C319.3594,229.7344 318.7188,229.4844 317.2344,229.2188 C315.9688,228.9844 315.875,228.9531 315.5469,228.7813 C315.1719,228.5938 314.9063,228.2031 314.9063,227.8438 C314.9063,227.1094 315.7656,226.5469 316.8281,226.5469 C317.8906,226.5469 318.7031,227.0156 318.8594,227.6875 C318.9688,228.2344 318.9688,228.2344 319.0938,228.375 C319.2344,228.5 319.4688,228.6094 319.7031,228.6094 C319.9688,228.6094 320.2188,228.4688 320.3906,228.25 C320.5,228.0781 320.5313,227.9375 320.5313,227.4688 L320.5313,225.9688 Z " fill="#000000"/><text fill="#000000" font-family="sans-serif" font-size="14" lengthAdjust="spacing" textLength="184" x="337.25" y="234.8467">DefaultWebSocketServer</text><line style="stroke:#181818;stroke-width:0.5;" x1="23.5" x2="802.5" y1="246" y2="246"/><rect fill="none" height="6" style="stroke:#C82930;stroke-width:1.0;" width="6" x="30.5" y="256.6484"/><text fill="#000000" font-family="sans-serif" font-size="14" lengthAdjust="spacing" textLength="226" x="42.5" y="262.9951">upgrader *websocket.Upgrader</text><rect fill="none" height="6" style="stroke:#C82930;stroke-width:1.0;" width="6" x="30.5" y="272.9453"/><text fill="#000000" font-family="sans-serif" font-size="14" lengthAdjust="spacing" textLength="48" x="42.5" y="279.292">clients</text><text fill="#0000FF" font-family="sans-serif" font-size="14" lengthAdjust="spacing" textLength="32" x="94.5" y="279.292">map</text><text fill="#000000" font-family="sans-serif" font-size="14" lengthAdjust="spacing" textLength="170" x="126.5" y="279.292">[*websocket.Conn]bool</text><rect fill="none" height="6" style="stroke:#C82930;stroke-width:1.0;" width="6" x="30.5" y="289.2422"/><text fill="#000000" font-family="sans-serif" font-size="14" lengthAdjust="spacing" textLength="63" x="42.5" y="295.5889">channels</text><text fill="#0000FF" font-family="sans-serif" font-size="14" lengthAdjust="spacing" textLength="32" x="109.5" y="295.5889">map</text><text fill="#000000" font-family="sans-serif" font-size="14" lengthAdjust="spacing" textLength="52" x="141.5" y="295.5889">[string]</text><text fill="#0000FF" font-family="sans-serif" font-size="14" lengthAdjust="spacing" textLength="32" x="193.5" y="295.5889">map</text><text fill="#000000" font-family="sans-serif" font-size="14" lengthAdjust="spacing" textLength="170" x="225.5" y="295.5889">[*websocket.Conn]bool</text><line style="stroke:#181818;stroke-width:0.5;" x1="23.5" x2="802.5" y1="302.8906" y2="302.8906"/><rect fill="#F24D5C" height="6" style="stroke:#C82930;stroke-width:1.0;" width="6" x="30.5" y="313.5391"/><text fill="#000000" font-family="sans-serif" font-size="14" lengthAdjust="spacing" textLength="629" x="42.5" y="319.8857">handleHTTPRequest(p_responseWriter http.ResponseWriter, p_request *http.Request)</text><rect fill="#F24D5C" height="6" style="stroke:#C82930;stroke-width:1.0;" width="6" x="30.5" y="329.8359"/><text fill="#000000" font-family="sans-serif" font-size="14" lengthAdjust="spacing" textLength="755" x="42.5" y="336.1826">upgradeWebSocket(p_responseWriter http.ResponseWriter, p_request *http.Request, p_channel string)</text><text fill="#000000" font-family="sans-serif" font-size="14" lengthAdjust="spacing" textLength="4" x="42.5" y="352.4795">&#160;</text><ellipse cx="33.5" cy="365.4297" fill="#84BE84" rx="3" ry="3" style="stroke:#038048;stroke-width:1.0;"/><text fill="#000000" font-family="sans-serif" font-size="14" lengthAdjust="spacing" textLength="47" x="42.5" y="368.7764">Start()</text><ellipse cx="33.5" cy="381.7266" fill="#84BE84" rx="3" ry="3" style="stroke:#038048;stroke-width:1.0;"/><text fill="#000000" font-family="sans-serif" font-size="14" lengthAdjust="spacing" textLength="45" x="42.5" y="385.0732">Stop()</text><ellipse cx="33.5" cy="398.0234" fill="#84BE84" rx="3" ry="3" style="stroke:#038048;stroke-width:1.0;"/><text fill="#000000" font-family="sans-serif" font-size="14" lengthAdjust="spacing" textLength="253" x="42.5" y="401.3701">Broadcast(p_channel string, p_data</text><text fill="#0000FF" font-family="sans-serif" font-size="14" lengthAdjust="spacing" textLength="66" x="299.5" y="401.3701">interface</text><text fill="#000000" font-family="sans-serif" font-size="14" lengthAdjust="spacing" textLength="23" x="365.5" y="401.3701">{})</text><ellipse cx="33.5" cy="414.3203" fill="#84BE84" rx="3" ry="3" style="stroke:#038048;stroke-width:1.0;"/><text fill="#000000" font-family="sans-serif" font-size="14" lengthAdjust="spacing" textLength="256" x="42.5" y="417.667">AddChannel(p_channelName string)</text></g><!--class IWebSocketServer--><g id="elem_IWebSocketServer"><rect codeLine="17" fill="#F1F1F1" height="113.1875" id="IWebSocketServer" rx="3.5" ry="3.5" style="stroke:#181818;stroke-width:0.5;" width="413" x="206.5" y="41"/><ellipse cx="343.25" cy="57" fill="#B4A7E5" rx="11" ry="11" style="stroke:#181818;stroke-width:1.0;"/><path d="M344.2031,53.7813 L345.9219,53.7813 C346.3125,53.7813 346.5,53.75 346.625,53.6719 C346.8906,53.5156 347.0313,53.2344 347.0313,52.9375 C347.0313,52.6719 346.9219,52.4063 346.6875,52.2344 C346.5156,52.125 346.375,52.0938 345.9219,52.0938 L340.7813,52.0938 C340.3438,52.0938 340.2188,52.1094 340.0625,52.2031 C339.8125,52.3594 339.6563,52.6563 339.6563,52.9375 C339.6563,53.2188 339.7969,53.4688 340.0156,53.6406 C340.1719,53.75 340.3594,53.7813 340.7813,53.7813 L342.5,53.7813 L342.5,60.2969 L340.7813,60.2969 C340.3438,60.2969 340.2188,60.3125 340.0625,60.4219 C339.8125,60.5781 339.6563,60.8594 339.6563,61.1563 C339.6563,61.4063 339.7969,61.6719 340.0156,61.8281 C340.1719,61.9531 340.375,62 340.7813,62 L345.9219,62 C346.6719,62 347.0313,61.7188 347.0313,61.1563 C347.0313,60.875 346.9219,60.625 346.6875,60.4531 C346.5156,60.3281 346.375,60.2969 345.9219,60.2969 L344.2031,60.2969 L344.2031,53.7813 Z " fill="#000000"/><text fill="#000000" font-family="sans-serif" font-size="14" font-style="italic" lengthAdjust="spacing" textLength="131" x="363.75" y="61.8467">IWebSocketServer</text><line style="stroke:#181818;stroke-width:0.5;" x1="207.5" x2="618.5" y1="73" y2="73"/><line style="stroke:#181818;stroke-width:0.5;" x1="207.5" x2="618.5" y1="81" y2="81"/><ellipse cx="217.5" cy="94.6484" fill="#84BE84" rx="3" ry="3" style="stroke:#038048;stroke-width:1.0;"/><text fill="#000000" font-family="sans-serif" font-size="14" lengthAdjust="spacing" textLength="47" x="226.5" y="97.9951">Start()</text><ellipse cx="217.5" cy="110.9453" fill="#84BE84" rx="3" ry="3" style="stroke:#038048;stroke-width:1.0;"/><text fill="#000000" font-family="sans-serif" font-size="14" lengthAdjust="spacing" textLength="45" x="226.5" y="114.292">Stop()</text><ellipse cx="217.5" cy="127.2422" fill="#84BE84" rx="3" ry="3" style="stroke:#038048;stroke-width:1.0;"/><text fill="#000000" font-family="sans-serif" font-size="14" lengthAdjust="spacing" textLength="294" x="226.5" y="130.5889">Broadcast(p_channelName string, p_data</text><text fill="#0000FF" font-family="sans-serif" font-size="14" lengthAdjust="spacing" textLength="66" x="524.5" y="130.5889">interface</text><text fill="#000000" font-family="sans-serif" font-size="14" lengthAdjust="spacing" textLength="23" x="590.5" y="130.5889">{})</text><ellipse cx="217.5" cy="143.5391" fill="#84BE84" rx="3" ry="3" style="stroke:#038048;stroke-width:1.0;"/><text fill="#000000" font-family="sans-serif" font-size="14" lengthAdjust="spacing" textLength="256" x="226.5" y="146.8857">AddChannel(p_channelName string)</text></g><!--reverse link IWebSocketServer to DefaultWebSocketServer--><g id="link_IWebSocketServer_DefaultWebSocketServer"><path codeLine="26" d="M413,174.074 C413,186.859 413,200.333 413,213.705 " fill="none" id="IWebSocketServer-backto-DefaultWebSocketServer" style="stroke:#191919;stroke-width:1.0;"/><polygon fill="none" points="406,174.015,413,154.015,420,174.015,406,174.015" style="stroke:#191919;stroke-width:1.0;"/></g><!--SRC=[jPF1JiCm38RlVGhJqpQsyWAbqXW7k22q3ks09kIstbQH9bcImc7itKcxgaixX0I872BLTh_V_kLSc2qL10KgxN4iI4jC2TufqI9z9QDXxu4zAKEjuPRMM3Apf2Ikip6fDr8GXZ28nzDTYHQJSnf253N_LMS2fTmep6pbg0K7JqtCAKjPJjnAXcl13QI22NMTi9AY0cLuLGMZPuSm4vol4Y6OYzWYvyI-PsXZkzoiVYpZw5YPZD7TOl4ufrr9sWpaYxBc2QvfgN9ZPzqQ8uDv9pQ6gggkXr6Jhx-6SEvMw_BVq5MYSGMEWrknLkqIOeFA39m6gf2GtSYD4fYbM8_PXLNu30sU6vvpszRQRbFZwVxGGKwpR7OadPWFTW5xJHxgksN1VN_vd4Nx_J2EyFyFTF0y__J0Wlv4FeGVamcu9L-_E_yJ]--></g></svg>